<?xml version="1.0" encoding="UTF-8" standalone="no"?>
<!-- Created with Inkscape (http://www.inkscape.org/) -->

<svg
   xmlns:dc="http://purl.org/dc/elements/1.1/"
   xmlns:cc="http://creativecommons.org/ns#"
   xmlns:rdf="http://www.w3.org/1999/02/22-rdf-syntax-ns#"
   xmlns:svg="http://www.w3.org/2000/svg"
   xmlns="http://www.w3.org/2000/svg"
   xmlns:xlink="http://www.w3.org/1999/xlink"
   xmlns:sodipodi="http://sodipodi.sourceforge.net/DTD/sodipodi-0.dtd"
   xmlns:inkscape="http://www.inkscape.org/namespaces/inkscape"
   width="144"
   height="144"
   id="svg2"
   version="1.1"
   inkscape:version="0.48.3.1 r9886"
   sodipodi:docname="xxhdpi.svg"
   inkscape:export-filename="/home/forest/projects/voicelink/images/logo/xxhdpi.png"
   inkscape:export-xdpi="90"
   inkscape:export-ydpi="90">
  <defs
     id="defs4">
    <linearGradient
       id="linearGradient3771">
      <stop
         style="stop-color:#000000;stop-opacity:0;"
         offset="0"
         id="stop3773" />
      <stop
         style="stop-color:#000000;stop-opacity:1;"
         offset="1"
         id="stop3775" />
    </linearGradient>
    <filter
       inkscape:collect="always"
       id="filter3767"
       color-interpolation-filters="sRGB">
      <feGaussianBlur
         inkscape:collect="always"
         stdDeviation="0.87346143"
         id="feGaussianBlur3769" />
    </filter>
    <linearGradient
       inkscape:collect="always"
       xlink:href="#linearGradient3771"
       id="linearGradient3802"
       gradientUnits="userSpaceOnUse"
       x1="24"
       y1="7"
       x2="24"
       y2="41" />
  </defs>
  <sodipodi:namedview
     id="base"
     pagecolor="#ffffff"
     bordercolor="#666666"
     borderopacity="1.0"
     inkscape:pageopacity="0.0"
     inkscape:pageshadow="2"
     inkscape:zoom="5.6"
     inkscape:cx="89.060347"
     inkscape:cy="88.55043"
     inkscape:document-units="px"
     inkscape:current-layer="layer1"
     showgrid="true"
     inkscape:window-width="1920"
     inkscape:window-height="1145"
     inkscape:window-x="0"
     inkscape:window-y="27"
     inkscape:window-maximized="1">
    <inkscape:grid
       type="xygrid"
       id="grid2985"
       empspacing="4"
       visible="true"
       enabled="true"
       snapvisiblegridlinesonly="true" />
  </sodipodi:namedview>
  <metadata
     id="metadata7">
    <rdf:RDF>
      <cc:Work
         rdf:about="">
        <dc:format>image/svg+xml</dc:format>
        <dc:type
           rdf:resource="http://purl.org/dc/dcmitype/StillImage" />
        <dc:title></dc:title>
      </cc:Work>
    </rdf:RDF>
  </metadata>
  <g
     inkscape:label="Layer 1"
     inkscape:groupmode="layer"
     id="layer1"
     transform="translate(0,-908.3622)">
    <path
       transform="matrix(3.3358016,0,0,3.3358016,-8.0592373,900.30296)"
       d="m 42,24 c 0,3.6 -5.882309,13.788457 -9,15.588457 -3.117691,1.8 -14.882309,1.8 -18,0 C 11.882309,37.788457 6,27.6 6,24 6,20.4 11.882309,10.211543 15,8.4115427 c 3.117691,-1.8 14.882309,-1.8 18,0 C 36.117691,10.211543 42,20.4 42,24 z"
       inkscape:randomized="0"
       inkscape:rounded="0.2"
       inkscape:flatsided="true"
       sodipodi:arg2="0.5235987"
       sodipodi:arg1="0"
       sodipodi:r2="13.856406"
       sodipodi:r1="18"
       sodipodi:cy="24"
       sodipodi:cx="24"
       sodipodi:sides="6"
       id="path3757"
       style="fill:#000000;fill-opacity:1;stroke:none;filter:url(#filter3767)"
       sodipodi:type="star" />
    <path
       sodipodi:type="star"
       style="fill:#1ddf00;fill-opacity:1;stroke:none"
       id="path2987"
       sodipodi:sides="6"
       sodipodi:cx="24"
       sodipodi:cy="24"
       sodipodi:r1="18"
       sodipodi:r2="13.856406"
       sodipodi:arg1="0"
       sodipodi:arg2="0.5235987"
       inkscape:flatsided="true"
       inkscape:rounded="0.2"
       inkscape:randomized="0"
       d="m 42,24 c 0,3.6 -5.882309,13.788457 -9,15.588457 -3.117691,1.8 -14.882309,1.8 -18,0 C 11.882309,37.788457 6,27.6 6,24 6,20.4 11.882309,10.211543 15,8.4115427 c 3.117691,-1.8 14.882309,-1.8 18,0 C 36.117691,10.211543 42,20.4 42,24 z"
       transform="matrix(3.3358016,0,0,3.3358016,-8.0592373,900.30296)" />
    <path
       transform="matrix(3.3358016,0,0,3.3358016,-8.0592373,900.30296)"
       d="m 40,24 c 0,3.2 -5.228719,12.256406 -8,13.856406 -2.771281,1.6 -13.228719,1.6 -16,0 C 13.228719,36.256406 8,27.2 8,24 c 0,-3.2 5.228719,-12.256406 8,-13.856406 2.771281,-1.6000005 13.228719,-1.6000005 16,0 C 34.771281,11.743594 40,20.8 40,24 z"
       inkscape:randomized="0"
       inkscape:rounded="0.2"
       inkscape:flatsided="true"
       sodipodi:arg2="0.5235987"
       sodipodi:arg1="0"
       sodipodi:r2="13.856406"
       sodipodi:r1="16"
       sodipodi:cy="24"
       sodipodi:cx="24"
       sodipodi:sides="6"
       id="path3779"
       style="fill:none;stroke:#ffffff;stroke-width:2;stroke-miterlimit:4;stroke-opacity:1;stroke-dasharray:none"
       sodipodi:type="star" />
    <path
       transform="matrix(3.3358016,0,0,3.3358016,-8.0592373,900.30296)"
       d="m 42,24 c 0,3.6 -5.882309,13.788457 -9,15.588457 -3.117691,1.8 -14.882309,1.8 -18,0 C 11.882309,37.788457 6,27.6 6,24 6,20.4 11.882309,10.211543 15,8.4115427 c 3.117691,-1.8 14.882309,-1.8 18,0 C 36.117691,10.211543 42,20.4 42,24 z"
       inkscape:randomized="0"
       inkscape:rounded="0.2"
       inkscape:flatsided="true"
       sodipodi:arg2="0.5235987"
       sodipodi:arg1="0"
       sodipodi:r2="13.856406"
       sodipodi:r1="18"
       sodipodi:cy="24"
       sodipodi:cx="24"
       sodipodi:sides="6"
       id="path3800"
       style="opacity:0.2;fill:url(#linearGradient3802);fill-opacity:1;stroke:none"
       sodipodi:type="star" />
  </g>
</svg>
